<svg width="256" height="256" viewBox="0 0 256 256" fill="none" xmlns="http://www.w3.org/2000/svg" role="img" aria-labelledby="starstepMarkTitle starstepMarkDesc">
  <title id="starstepMarkTitle">Starstep mark</title>
  <desc id="starstepMarkDesc">A rounded square icon with ascending stepping stones leading to a star.</desc>
  <rect width="256" height="256" rx="72" fill="#F7F4EA"/>
  <path d="M60 174C60 152.461 77.4609 135 99 135H123C144.539 135 162 152.461 162 174C162 195.539 144.539 213 123 213H99C77.4609 213 60 195.539 60 174Z" fill="#F0A34A"/>
  <path d="M109 116C109 94.4609 126.461 77 148 77H172C193.539 77 211 94.4609 211 116C211 137.539 193.539 155 172 155H148C126.461 155 109 137.539 109 116Z" fill="#59B8A6"/>
  <path d="M50 105C50 83.4609 67.4609 66 89 66H113C134.539 66 152 83.4609 152 105C152 126.539 134.539 144 113 144H89C67.4609 144 50 126.539 50 105Z" fill="#7D8CF2"/>
  <path d="M74 173L105 119L151 119L176 85" stroke="#243047" stroke-width="12" stroke-linecap="round" stroke-linejoin="round"/>
  <path d="M160.736 54.9356C161.852 51.5001 166.711 51.5001 167.827 54.9356L173.624 72.7778C174.123 74.3151 175.557 75.3557 177.172 75.3557H195.936C199.547 75.3557 201.049 79.9786 198.126 82.1029L182.946 93.1303C181.636 94.0821 181.089 95.7672 181.588 97.3045L187.385 115.147C188.502 118.582 184.57 121.439 181.648 119.315L166.467 108.287C165.158 107.336 163.405 107.336 162.095 108.287L146.915 119.315C143.992 121.439 140.061 118.582 141.177 115.147L146.974 97.3045C147.473 95.7672 146.926 94.0821 145.617 93.1303L130.436 82.1029C127.514 79.9786 129.015 75.3557 132.627 75.3557H151.39C153.006 75.3557 154.439 74.3151 154.939 72.7778L160.736 54.9356Z" fill="#F15D5F"/>
</svg>
